<svg id="レイヤー_1" data-name="レイヤー 1" xmlns="http://www.w3.org/2000/svg" viewBox="0 0 87.39 83.25"><defs><style>.cls-1{fill:#fff;}.cls-2{fill:#2bac38;}</style></defs><g id="FULL_COLOR_ICON" data-name="FULL COLOR ICON"><g id="TYPE_A" data-name="TYPE A"><path class="cls-1" d="M87.39,35.45C87.39,15.9,67.79,0,43.69,0S0,15.9,0,35.45C0,53,15.55,67.66,36.54,70.45c1.43.31,3.36.94,3.85,2.16a8.86,8.86,0,0,1,.14,4l-.64,3.67c-.19,1.1-.88,4.32,3.78,2.35S68.89,67.82,78,57.27h0c6.33-7,9.37-14,9.37-21.82"/><path class="cls-2" d="M34.82,26H31.75a.85.85,0,0,0-.85.85v19a.85.85,0,0,0,.85.85h3.07a.85.85,0,0,0,.85-.85v-19a.85.85,0,0,0-.85-.85"/><path class="cls-2" d="M55.89,26h-3a.85.85,0,0,0-.85.85V38.17L43.27,26.38l-.06-.08h0l-.05-.05h-3.4a.85.85,0,0,0-.85.85v19a.85.85,0,0,0,.85.85h3.06a.86.86,0,0,0,.86-.85V34.59l8.73,11.79a.63.63,0,0,0,.22.21h.11a.67.67,0,0,0,.15.14h3a.85.85,0,0,0,.85-.85v-19a.85.85,0,0,0-.85-.85"/><path class="cls-2" d="M27.43,42H19.1V26.86a.85.85,0,0,0-.85-.85H15.19a.85.85,0,0,0-.85.85v19h0a.86.86,0,0,0,.23.59h0a.86.86,0,0,0,.59.23H27.43a.85.85,0,0,0,.85-.85v-3a.85.85,0,0,0-.85-.85"/><path class="cls-2" d="M72.89,30.73a.85.85,0,0,0,.85-.85v-3a.85.85,0,0,0-.85-.85H60.59a.87.87,0,0,0-.59.24h0a.82.82,0,0,0-.24.59h0v19h0a.82.82,0,0,0,.24.59h0a.87.87,0,0,0,.59.24h12.3a.85.85,0,0,0,.85-.85v-3a.85.85,0,0,0-.85-.85H64.51V38.73h8.38a.85.85,0,0,0,.85-.85v-3a.85.85,0,0,0-.85-.85H64.51V30.73Z"/></g></g></svg>